<svg width="50" height="50" viewBox="0 0 50 50" fill="none" xmlns="http://www.w3.org/2000/svg">
<path d="M28 19.02H21L19 14.02C20 14.02 21 14.02 22 15.02C22.45 14.45 23 14.02 24.5 14C26 14.02 26.51 14.33 27 15.02C28 14.02 29 14.02 30 14.02L28 19.02Z" stroke="#E2C792" stroke-miterlimit="10"/>
<path d="M28 19.02H24.5H21C19 21.02 16 24.53 16 28.02C16 32.82 19.76 36.73 24.5 36.99C29.24 36.73 33 32.82 33 28.02C33 24.53 30 21.02 28 19.02Z" stroke="#E2C792" stroke-miterlimit="10"/>
<path d="M22.1 25.52C22.1 24.19 23.17 23.12 24.5 23.12C25.83 23.12 26.9 24.19 26.9 25.52" stroke="#E2C792" stroke-miterlimit="10" stroke-linecap="round" stroke-linejoin="round"/>
<path d="M26.9 29.52C26.9 30.85 25.83 31.92 24.5 31.92C23.17 31.92 22.1 30.85 22.1 29.52" stroke="#E2C792" stroke-miterlimit="10" stroke-linecap="round" stroke-linejoin="round"/>
<path d="M22.1 25.52C22.1 27.12 22.92 27.52 24.5 27.52C25.94 27.52 26.9 27.92 26.9 29.52" stroke="#E2C792" stroke-miterlimit="10" stroke-linecap="round" stroke-linejoin="round"/>
</svg>
