<svg width="9" height="9" viewBox="0 0 9 9" fill="none" xmlns="http://www.w3.org/2000/svg">
<path d="M5.04974 3.99676C4.71674 3.66376 4.71674 3.12376 5.04974 2.79076L6.39073 1.44976C6.72373 1.11676 7.26374 1.11676 7.59674 1.44976C7.92974 1.78276 7.92974 2.32276 7.59674 2.65576L6.25574 3.99676C5.91974 4.32976 5.38274 4.32976 5.04974 3.99676Z" stroke="#E2C792" stroke-width="0.5" stroke-miterlimit="10" stroke-linecap="round" stroke-linejoin="round"/>
<path d="M1.44976 7.59674C1.11676 7.26374 1.11676 6.72374 1.44976 6.39074L2.79076 5.04974C3.12376 4.71674 3.66376 4.71674 3.99676 5.04974C4.32976 5.38274 4.32976 5.92274 3.99676 6.25574L2.65576 7.59674C2.31976 7.92974 1.78276 7.92974 1.44976 7.59674Z" stroke="#E2C792" stroke-width="0.5" stroke-miterlimit="10" stroke-linecap="round" stroke-linejoin="round"/>
<path d="M5.64376 3.39679L3.54376 5.49679" stroke="#E2C792" stroke-width="0.5" stroke-miterlimit="10" stroke-linecap="round" stroke-linejoin="round"/>
</svg>
