<svg width="16" height="25" viewBox="0 0 16 25" fill="none" xmlns="http://www.w3.org/2000/svg">
<path d="M8 24C11.866 24 15 20.866 15 17C15 13.134 11.866 10 8 10C4.13401 10 1 13.134 1 17C1 20.866 4.13401 24 8 24Z" stroke="#E2C792" stroke-miterlimit="10" stroke-linecap="round" stroke-linejoin="round"/>
<path d="M3 12.11V6C3 3.24 5.24 1 8 1C9.38 1 10.63 1.56 11.54 2.46C12.44 3.37 13 4.62 13 6V12.11" stroke="#E2C792" stroke-miterlimit="10" stroke-linecap="round" stroke-linejoin="round"/>
<path d="M8 17V19" stroke="#E2C792" stroke-miterlimit="10" stroke-linecap="round" stroke-linejoin="round"/>
<path d="M9 16C9 16.5523 8.55228 17 8 17C7.44772 17 7 16.5523 7 16C7 15.4477 7.44772 15 8 15C8.55228 15 9 15.4477 9 16Z" stroke="#E2C792"/>
</svg>
