<svg width="50" height="50" viewBox="0 0 50 50" fill="none" xmlns="http://www.w3.org/2000/svg">
<path d="M24.5 37C30.8513 37 36 31.8513 36 25.5C36 19.1487 30.8513 14 24.5 14C18.1487 14 13 19.1487 13 25.5C13 31.8513 18.1487 37 24.5 37Z" stroke="#E2C792" stroke-miterlimit="10" stroke-linecap="round" stroke-linejoin="round"/>
<path d="M15.5 25.5C15.5 20.53 19.53 16.5 24.5 16.5C29.47 16.5 33.5 20.53 33.5 25.5" stroke="#E2C792" stroke-miterlimit="10" stroke-linecap="round" stroke-linejoin="round"/>
<path d="M24.5 21V26" stroke="#E2C792" stroke-miterlimit="10" stroke-linecap="round" stroke-linejoin="round"/>
<path d="M24.5 29C25.3284 29 26 28.3284 26 27.5C26 26.6716 25.3284 26 24.5 26C23.6716 26 23 26.6716 23 27.5C23 28.3284 23.6716 29 24.5 29Z" stroke="#E2C792" stroke-miterlimit="10" stroke-linecap="round" stroke-linejoin="round"/>
</svg>
