<svg width="24" height="24" viewBox="0 0 24 24" fill="none" xmlns="http://www.w3.org/2000/svg">
<path d="M12.3253 16.56L12.3253 16.56L12.3241 16.5572L7.89698 6.01124C7.80628 5.7663 7.65605 5.5753 7.44608 5.44311C7.25169 5.30143 7.0358 5.22895 6.80093 5.22794C6.54024 5.20292 6.30216 5.26255 6.09128 5.40753C5.88143 5.5518 5.72584 5.75421 5.62334 6.01015C5.62326 6.01036 5.62317 6.01058 5.62308 6.01079L1.14161 16.7735L1.14112 16.7733L1.13815 16.7832C1.09979 16.9111 1.07993 17.0348 1.07993 17.1539C1.07993 17.4604 1.16338 17.7151 1.34065 17.906L1.3406 17.906L1.34322 17.9086C1.5353 18.1007 1.80404 18.1899 2.13393 18.1899C2.35904 18.1899 2.56531 18.1233 2.75006 17.9913L2.75006 17.9913L2.75107 17.9906C2.94767 17.8464 3.09067 17.6505 3.18089 17.4069L4.09001 15.2739H9.32206L10.2318 17.3907C10.2318 17.3909 10.2319 17.391 10.2319 17.3911C10.3335 17.6321 10.4749 17.8266 10.6581 17.9706L10.6581 17.9706L10.6608 17.9726C10.8573 18.1167 11.0759 18.1899 11.3139 18.1899C11.6051 18.1899 11.8632 18.083 12.0845 17.8748L12.0845 17.8748L12.0866 17.8726C12.311 17.6483 12.4219 17.3641 12.4219 17.0279C12.4219 16.8809 12.3885 16.7246 12.3253 16.56ZM22.3047 17.7646L22.3067 17.7626C22.5292 17.527 22.64 17.2381 22.64 16.9019V5.77793C22.64 5.43097 22.5299 5.14035 22.3047 4.91522C22.0804 4.69085 21.7962 4.57993 21.46 4.57993C21.1226 4.57993 20.8381 4.69782 20.6143 4.93421C20.3906 5.15843 20.28 5.44229 20.28 5.77793V9.08558C19.9562 8.8191 19.576 8.59799 19.1405 8.42162C18.6237 8.20028 18.0705 8.08993 17.482 8.08993C16.6591 8.08993 15.9023 8.31133 15.2141 8.75369C14.5376 9.1843 14.004 9.79257 13.6127 10.5749C13.2208 11.3467 13.026 12.2204 13.026 13.1939C13.026 14.1676 13.2208 15.0414 13.6129 15.8132L13.6129 15.8132L13.6134 15.8143C14.0169 16.5846 14.5624 17.192 15.2499 17.6341L15.251 17.6347C15.9397 18.0651 16.7082 18.2799 17.554 18.2799C18.1327 18.2799 18.6814 18.1567 19.199 17.9102L19.1999 17.9098C19.6444 17.6927 20.0135 17.439 20.3048 17.1477C20.3494 17.3848 20.4516 17.5908 20.6132 17.7625L20.6132 17.7625L20.6153 17.7646C20.8397 17.989 21.1239 18.0999 21.46 18.0999C21.7962 18.0999 22.0804 17.989 22.3047 17.7646ZM5.05682 13.0039L6.68885 9.1464L8.35385 13.0039H5.05682ZM19.6564 15.2885C19.1843 15.8295 18.5764 16.0999 17.824 16.0999C17.0719 16.0999 16.4641 15.8297 15.9921 15.2891C15.5298 14.7339 15.296 14.0379 15.296 13.1939C15.296 12.3502 15.5357 11.6542 16.0101 11.0989C16.4828 10.5455 17.0848 10.2699 17.824 10.2699C18.5758 10.2699 19.1836 10.5459 19.656 11.0989C20.1304 11.6542 20.37 12.3502 20.37 13.1939C20.37 14.0374 20.1305 14.7332 19.6564 15.2885Z" fill="white" stroke="white" stroke-width="0.2"/>
<rect x="0.9" y="0.9" width="22.2" height="22.2" rx="4.1" stroke="#2B30D3" stroke-width="1.8"/>
<path d="M2.53027 1.46973L21.9999 21.5" stroke="#2B30D3" stroke-width="1.8"/>
</svg>
