<svg width="16" height="16" viewBox="0 0 16 16" fill="none" xmlns="http://www.w3.org/2000/svg">
<path d="M7.99992 14.6667C8.87557 14.6678 9.74281 14.4959 10.5518 14.1608C11.3608 13.8257 12.0956 13.334 12.7139 12.714C13.3339 12.0957 13.8256 11.3609 14.1607 10.5519C14.4958 9.74293 14.6677 8.87569 14.6666 8.00005C14.6677 7.1244 14.4958 6.25717 14.1607 5.44819C13.8256 4.6392 13.3339 3.90441 12.7139 3.28605C12.0956 2.66606 11.3608 2.17438 10.5518 1.83927C9.74281 1.50417 8.87557 1.33225 7.99992 1.33338C7.12428 1.33226 6.25705 1.5042 5.44807 1.8393C4.63908 2.1744 3.90429 2.66607 3.28592 3.28605C2.66595 3.90441 2.17428 4.6392 1.83918 5.44819C1.50407 6.25717 1.33214 7.1244 1.33326 8.00005C1.33212 8.87569 1.50405 9.74293 1.83915 10.5519C2.17426 11.3609 2.66593 12.0957 3.28592 12.714C3.90429 13.334 4.63908 13.8257 5.44807 14.1608C6.25705 14.4959 7.12428 14.6678 7.99992 14.6667V14.6667Z" stroke="#EB2E46" stroke-width="2" stroke-linejoin="round"/>
<path fill-rule="evenodd" clip-rule="evenodd" d="M7.99984 12.3334C8.22085 12.3334 8.43281 12.2456 8.58909 12.0893C8.74537 11.9331 8.83317 11.7211 8.83317 11.5001C8.83317 11.2791 8.74537 11.0671 8.58909 10.9108C8.43281 10.7545 8.22085 10.6667 7.99984 10.6667C7.77882 10.6667 7.56686 10.7545 7.41058 10.9108C7.2543 11.0671 7.1665 11.2791 7.1665 11.5001C7.1665 11.7211 7.2543 11.9331 7.41058 12.0893C7.56686 12.2456 7.77882 12.3334 7.99984 12.3334Z" fill="#EB2E46"/>
<path d="M8 4V9.33333" stroke="#EB2E46" stroke-width="2" stroke-linecap="round" stroke-linejoin="round"/>
</svg>
