<svg width="24" height="24" viewBox="0 0 24 24" fill="none" xmlns="http://www.w3.org/2000/svg">
<path d="M21.75 18V15.75H22.5C22.9125 15.75 23.25 15.4125 23.25 15V9C23.25 8.5875 22.9125 8.25 22.5 8.25H21.75V6C21.749 5.60248 21.5907 5.22152 21.3096 4.94043C21.0285 4.65934 20.6475 4.50099 20.25 4.5L2.25 4.5C1.42537 4.5 0.75 5.17463 0.75 6V18C0.75 18.8246 1.42537 19.5 2.25 19.5H20.25C21.0754 19.5 21.75 18.8246 21.75 18ZM3.75 18.375C3.54712 18.375 3.375 18.2029 3.375 18V6C3.375 5.79638 3.54712 5.625 3.75 5.625L18.75 5.625C18.9536 5.625 19.125 5.79638 19.125 6V18C19.125 18.2029 18.9536 18.375 18.75 18.375H3.75Z" fill="#10347D"/>
<path d="M17.625 16.5V7.5C17.625 7.0875 17.2875 6.75 16.875 6.75H15.375C14.9625 6.75 14.625 7.0875 14.625 7.5V16.5C14.625 16.9125 14.9625 17.25 15.375 17.25H16.875C17.2875 17.25 17.625 16.9125 17.625 16.5Z" fill="#10347D"/>
<path d="M12.75 16.5V7.5C12.75 7.0875 12.4125 6.75 12 6.75H10.5C10.0875 6.75 9.75 7.0875 9.75 7.5V16.5C9.75 16.9125 10.0875 17.25 10.5 17.25H12C12.4125 17.25 12.75 16.9125 12.75 16.5Z" fill="#10347D"/>
<path d="M7.875 16.5L7.875 7.5C7.875 7.0875 7.5375 6.75 7.125 6.75H5.625C5.2125 6.75 4.875 7.0875 4.875 7.5V16.5C4.875 16.9125 5.2125 17.25 5.625 17.25H7.125C7.5375 17.25 7.875 16.9125 7.875 16.5Z" fill="#10347D"/>
</svg>
