<svg width="36" height="36" viewBox="0 0 36 36" fill="none" xmlns="http://www.w3.org/2000/svg">
<path d="M32.625 27V23.625H33.75C34.3688 23.625 34.875 23.1187 34.875 22.5V13.5C34.875 12.8812 34.3688 12.375 33.75 12.375H32.625V9C32.6235 8.40372 32.386 7.83229 31.9643 7.41065C31.5427 6.98901 30.9713 6.75149 30.375 6.75L3.375 6.75C2.13806 6.75 1.125 7.76194 1.125 9V27C1.125 28.2369 2.13806 29.25 3.375 29.25L30.375 29.25C31.6131 29.25 32.625 28.2369 32.625 27ZM5.625 27.5625C5.32069 27.5625 5.0625 27.3043 5.0625 27V9C5.0625 8.69456 5.32069 8.4375 5.625 8.4375L28.125 8.4375C28.4304 8.4375 28.6875 8.69456 28.6875 9V27C28.6875 27.3043 28.4304 27.5625 28.125 27.5625L5.625 27.5625Z" fill="#10347D"/>
<path d="M26.4375 24.75V11.25C26.4375 10.6312 25.9313 10.125 25.3125 10.125H23.0625C22.4437 10.125 21.9375 10.6312 21.9375 11.25V24.75C21.9375 25.3687 22.4437 25.875 23.0625 25.875H25.3125C25.9313 25.875 26.4375 25.3687 26.4375 24.75Z" fill="#10347D"/>
<path d="M19.125 24.75V11.25C19.125 10.6312 18.6188 10.125 18 10.125H15.75C15.1312 10.125 14.625 10.6312 14.625 11.25V24.75C14.625 25.3687 15.1312 25.875 15.75 25.875H18C18.6188 25.875 19.125 25.3687 19.125 24.75Z" fill="#10347D"/>
<path d="M11.8125 24.75L11.8125 11.25C11.8125 10.6312 11.3063 10.125 10.6875 10.125H8.4375C7.81875 10.125 7.3125 10.6312 7.3125 11.25L7.3125 24.75C7.3125 25.3687 7.81875 25.875 8.4375 25.875H10.6875C11.3063 25.875 11.8125 25.3687 11.8125 24.75Z" fill="#10347D"/>
</svg>
