<svg width="191" height="191" viewBox="0 0 191 191" fill="none" xmlns="http://www.w3.org/2000/svg">
<path d="M77.5938 71.625C76.0107 71.625 74.4926 72.2538 73.3732 73.3732C72.2538 74.4926 71.625 76.0107 71.625 77.5938V113.406C71.625 114.989 72.2538 116.507 73.3732 117.627C74.4926 118.746 76.0107 119.375 77.5938 119.375H113.406C114.989 119.375 116.507 118.746 117.627 117.627C118.746 116.507 119.375 114.989 119.375 113.406V77.5938C119.375 76.0107 118.746 74.4926 117.627 73.3732C116.507 72.2538 114.989 71.625 113.406 71.625H77.5938Z" fill="url(#paint0_linear_1583_5408)"/>
<path d="M65.6562 5.96875C65.6562 4.38574 65.0274 2.86756 63.908 1.74821C62.7887 0.628849 61.2705 0 59.6875 0C58.1045 0 56.5863 0.628849 55.467 1.74821C54.3476 2.86756 53.7188 4.38574 53.7188 5.96875V23.875C45.8037 23.875 38.2128 27.0192 32.616 32.616C27.0192 38.2128 23.875 45.8037 23.875 53.7188H5.96875C4.38574 53.7188 2.86756 54.3476 1.74821 55.467C0.628849 56.5863 0 58.1045 0 59.6875C0 61.2705 0.628849 62.7887 1.74821 63.908C2.86756 65.0274 4.38574 65.6562 5.96875 65.6562H23.875V77.5938H5.96875C4.38574 77.5938 2.86756 78.2226 1.74821 79.342C0.628849 80.4613 0 81.9795 0 83.5625C0 85.1455 0.628849 86.6637 1.74821 87.783C2.86756 88.9024 4.38574 89.5312 5.96875 89.5312H23.875V101.469H5.96875C4.38574 101.469 2.86756 102.098 1.74821 103.217C0.628849 104.336 0 105.854 0 107.438C0 109.021 0.628849 110.539 1.74821 111.658C2.86756 112.777 4.38574 113.406 5.96875 113.406H23.875V125.344H5.96875C4.38574 125.344 2.86756 125.973 1.74821 127.092C0.628849 128.211 0 129.729 0 131.312C0 132.896 0.628849 134.414 1.74821 135.533C2.86756 136.652 4.38574 137.281 5.96875 137.281H23.875C23.875 145.196 27.0192 152.787 32.616 158.384C38.2128 163.981 45.8037 167.125 53.7188 167.125V185.031C53.7188 186.614 54.3476 188.132 55.467 189.252C56.5863 190.371 58.1045 191 59.6875 191C61.2705 191 62.7887 190.371 63.908 189.252C65.0274 188.132 65.6562 186.614 65.6562 185.031V167.125H77.5938V185.031C77.5938 186.614 78.2226 188.132 79.342 189.252C80.4613 190.371 81.9795 191 83.5625 191C85.1455 191 86.6637 190.371 87.783 189.252C88.9024 188.132 89.5312 186.614 89.5312 185.031V167.125H101.469V185.031C101.469 186.614 102.098 188.132 103.217 189.252C104.336 190.371 105.854 191 107.438 191C109.021 191 110.539 190.371 111.658 189.252C112.777 188.132 113.406 186.614 113.406 185.031V167.125H125.344V185.031C125.344 186.614 125.973 188.132 127.092 189.252C128.211 190.371 129.729 191 131.312 191C132.896 191 134.414 190.371 135.533 189.252C136.652 188.132 137.281 186.614 137.281 185.031V167.125C145.196 167.125 152.787 163.981 158.384 158.384C163.981 152.787 167.125 145.196 167.125 137.281H185.031C186.614 137.281 188.132 136.652 189.252 135.533C190.371 134.414 191 132.896 191 131.312C191 129.729 190.371 128.211 189.252 127.092C188.132 125.973 186.614 125.344 185.031 125.344H167.125V113.406H185.031C186.614 113.406 188.132 112.777 189.252 111.658C190.371 110.539 191 109.021 191 107.438C191 105.854 190.371 104.336 189.252 103.217C188.132 102.098 186.614 101.469 185.031 101.469H167.125V89.5312H185.031C186.614 89.5312 188.132 88.9024 189.252 87.783C190.371 86.6637 191 85.1455 191 83.5625C191 81.9795 190.371 80.4613 189.252 79.342C188.132 78.2226 186.614 77.5938 185.031 77.5938H167.125V65.6562H185.031C186.614 65.6562 188.132 65.0274 189.252 63.908C190.371 62.7887 191 61.2705 191 59.6875C191 58.1045 190.371 56.5863 189.252 55.467C188.132 54.3476 186.614 53.7188 185.031 53.7188H167.125C167.125 45.8037 163.981 38.2128 158.384 32.616C152.787 27.0192 145.196 23.875 137.281 23.875V5.96875C137.281 4.38574 136.652 2.86756 135.533 1.74821C134.414 0.628849 132.896 0 131.312 0C129.729 0 128.211 0.628849 127.092 1.74821C125.973 2.86756 125.344 4.38574 125.344 5.96875V23.875H113.406V5.96875C113.406 4.38574 112.777 2.86756 111.658 1.74821C110.539 0.628849 109.021 0 107.438 0C105.854 0 104.336 0.628849 103.217 1.74821C102.098 2.86756 101.469 4.38574 101.469 5.96875V23.875H89.5312V5.96875C89.5312 4.38574 88.9024 2.86756 87.783 1.74821C86.6637 0.628849 85.1455 0 83.5625 0C81.9795 0 80.4613 0.628849 79.342 1.74821C78.2226 2.86756 77.5938 4.38574 77.5938 5.96875V23.875H65.6562V5.96875ZM77.5938 59.6875H113.406C118.155 59.6875 122.71 61.574 126.068 64.9321C129.426 68.2902 131.312 72.8447 131.312 77.5938V113.406C131.312 118.155 129.426 122.71 126.068 126.068C122.71 129.426 118.155 131.312 113.406 131.312H77.5938C72.8447 131.312 68.2902 129.426 64.9321 126.068C61.574 122.71 59.6875 118.155 59.6875 113.406V77.5938C59.6875 72.8447 61.574 68.2902 64.9321 64.9321C68.2902 61.574 72.8447 59.6875 77.5938 59.6875Z" fill="url(#paint1_linear_1583_5408)"/>
<defs>
<linearGradient id="paint0_linear_1583_5408" x1="95.5" y1="71.625" x2="95.5" y2="119.375" gradientUnits="userSpaceOnUse">
<stop stop-color="#F31935"/>
<stop offset="1" stop-color="#FF8F3E"/>
</linearGradient>
<linearGradient id="paint1_linear_1583_5408" x1="95.5" y1="0" x2="95.5" y2="191" gradientUnits="userSpaceOnUse">
<stop stop-color="#F31935"/>
<stop offset="1" stop-color="#FF8F3E"/>
</linearGradient>
</defs>
</svg>
