<svg width="32" height="40" viewBox="0 0 32 40" fill="none" xmlns="http://www.w3.org/2000/svg">
<path d="M16 0.833374C16 0.833374 6.41662 4.66671 6.41662 20C6.41662 25.9417 7.87329 31.0209 9.61746 35.0075C9.92395 35.6795 10.418 36.2486 11.0403 36.6464C11.6625 37.0443 12.3864 37.2539 13.125 37.25H18.875C19.6135 37.2539 20.3374 37.0443 20.9597 36.6464C21.5819 36.2486 22.076 35.6795 22.3825 35.0075C24.1458 31.0209 25.5833 25.9417 25.5833 20C25.5833 4.66671 16 0.833374 16 0.833374ZM18.875 33.4167H13.125C11.2083 29.1234 10.25 24.6192 10.25 20C10.25 11.1067 13.8916 6.96671 16 5.29921C18.1083 6.96671 21.75 11.1067 21.75 20C21.75 24.6192 20.7916 29.1234 18.875 33.4167ZM31.3333 39.1667L23.935 36.1959C25.2766 33.2634 26.235 30.235 26.8291 27.1492L31.3333 39.1667ZM8.06496 36.1959L0.666626 39.1667L5.17079 27.1492C5.76496 30.235 6.72329 33.2634 8.06496 36.1959ZM16 20C13.8916 20 12.1666 18.275 12.1666 16.1667C12.1666 14.0584 13.8916 12.3334 16 12.3334C18.1083 12.3334 19.8333 14.0584 19.8333 16.1667C19.8333 18.275 18.1083 20 16 20Z" fill="#10347D"/>
</svg>
