<svg width="40" height="40" viewBox="0 0 40 40" fill="none" xmlns="http://www.w3.org/2000/svg">
<path d="M20 18.0834C19.4917 18.0834 19.0042 18.2853 18.6448 18.6448C18.2853 19.0042 18.0834 19.4917 18.0834 20C18.0834 20.5084 18.2853 20.9959 18.6448 21.3553C19.0042 21.7148 19.4917 21.9167 20 21.9167C20.5084 21.9167 20.9959 21.7148 21.3553 21.3553C21.7148 20.9959 21.9167 20.5084 21.9167 20C21.9167 19.4917 21.7148 19.0042 21.3553 18.6448C20.9959 18.2853 20.5084 18.0834 20 18.0834ZM20.9584 0.833374C29.5834 0.833374 29.7942 7.67587 25.2709 9.93754C23.3734 10.8767 22.53 12.8892 22.1659 14.6717C23.0859 15.055 23.8909 15.6492 24.5042 16.4159C31.5959 12.5825 39.2242 14.0967 39.2242 20.9584C39.2242 29.5834 32.3817 29.775 30.12 25.2325C29.1617 23.335 27.13 22.4917 25.3475 22.1275C24.9642 23.0475 24.37 23.8334 23.6034 24.485C27.4175 31.5575 25.9034 39.1667 19.0417 39.1667C10.4167 39.1667 10.2442 32.305 14.7675 30.0434C16.6459 29.1042 17.4892 27.1109 17.8725 25.3475C16.9334 24.9642 16.1092 24.3509 15.4959 23.5842C8.42337 27.3792 0.833374 25.8842 0.833374 19.0417C0.833374 10.4167 7.65671 10.2059 9.91837 14.7484C10.8767 16.6459 12.8892 17.47 14.6717 17.8342C15.0359 16.9142 15.6492 16.1092 16.435 15.4959C12.6209 8.42337 14.135 0.833374 20.9584 0.833374Z" fill="url(#paint0_linear_1583_5373)"/>
<defs>
<linearGradient id="paint0_linear_1583_5373" x1="20.0288" y1="0.833374" x2="20.0288" y2="39.1667" gradientUnits="userSpaceOnUse">
<stop stop-color="#F31935"/>
<stop offset="1" stop-color="#FF8F3E"/>
</linearGradient>
</defs>
</svg>
