<svg width="139" height="247" viewBox="0 0 139 247" fill="none" xmlns="http://www.w3.org/2000/svg">
<path d="M138.323 39.2695C138.323 51.2971 107.543 61.0478 69.5748 61.0478C31.6065 61.0478 0.827148 51.2976 0.827148 39.2695C0.827148 27.2414 31.6065 17.4912 69.5748 17.4912C107.543 17.4912 138.323 27.2419 138.323 39.2695Z" fill="#DDDDDD"/>
<path d="M138.323 39.2704V224.643C138.323 236.671 107.543 246.421 69.5748 246.421C31.6065 246.421 0.827148 236.671 0.827148 224.643V39.2704H138.323Z" fill="#9AAAB4"/>
<path d="M138.323 39.2695C138.323 51.2971 107.543 61.0478 69.5748 61.0478C31.6065 61.0478 0.827148 51.2976 0.827148 39.2695C0.827148 27.2414 31.6065 17.4912 69.5748 17.4912C107.543 17.4912 138.323 27.2419 138.323 39.2695Z" fill="#D5DEE2"/>
<path d="M138.323 73.5774V191.719C138.323 203.747 107.543 213.497 69.5748 213.497C31.6065 213.497 0.827148 203.747 0.827148 191.719V73.5774C0.827148 85.605 31.6065 95.3557 69.5748 95.3557C107.543 95.3557 138.323 85.605 138.323 73.5774Z" fill="#10347E"/>
<path d="M92.0526 7.56665V35.325C92.0526 39.2576 81.9889 42.4455 69.5746 42.4455C57.1604 42.4455 47.0967 39.2576 47.0967 35.325V7.56665H92.0526Z" fill="#9AAAB4"/>
<path d="M92.0526 7.56579C92.0526 11.4984 81.9889 14.6863 69.5746 14.6863C57.1604 14.6863 47.0967 11.4984 47.0967 7.56579C47.0967 3.63321 57.1607 0.445312 69.575 0.445312C81.9892 0.445312 92.0526 3.63321 92.0526 7.56579Z" fill="#D5DEE2"/>
<path d="M86.9473 139.974H76.875V150.046H63.0723V139.974H53V126.171H63.0723V116.099H76.875V126.171H86.9473V139.974ZM86.9473 169.737H53V183.54H86.9473V169.737Z" fill="#E5E4DF"/>
</svg>
