<svg width="163" height="213" viewBox="0 0 163 213" fill="none" xmlns="http://www.w3.org/2000/svg">
<path d="M65.8894 0.000566907C64.2438 0.197846 62.7062 1.00901 61.5258 2.30261L26.8593 40.9621H8.03841C3.99068 40.9621 0.692261 44.6405 0.692261 49.1544V65.539C0.692261 70.053 3.99068 73.7314 8.03841 73.7314H9.87495L26.6315 186.122C26.6268 186.291 26.6268 186.46 26.6315 186.63C27.829 193.085 30.0769 199.254 34.2128 204.3C38.3413 209.339 44.6443 213.001 51.6599 213.001H111.34C114.611 212.996 117.847 212.245 120.848 210.792C123.848 209.339 126.55 207.216 128.787 204.554C132.982 199.516 135.274 193.044 136.368 186.376C136.37 186.291 136.37 186.206 136.368 186.122L153.345 73.7314H154.961C159.009 73.7314 162.308 70.053 162.308 65.539V49.1544C162.308 44.6405 159.009 40.9621 154.961 40.9621H143.479L122.822 12.289C122.207 11.3996 121.4 10.6981 120.477 10.2498C119.553 9.8015 118.543 9.62091 117.54 9.72484C116.642 9.84876 115.78 10.1989 115.02 10.7489L93.9003 26.6256L72.0748 2.30261C71.2731 1.41495 70.2986 0.745464 69.2271 0.346203C68.1556 -0.0530577 67.0159 -0.171335 65.8967 0.000566907H65.8894ZM66.8076 19.9734L85.6358 40.9621H47.9721L66.8076 19.9652V19.9734ZM117.085 25.3476L128.332 40.9621H106.749L102.392 36.0959L117.085 25.3476ZM24.5673 73.7314H29.6214L38.3413 83.4638L27.7775 94.9822L24.5673 73.7314ZM39.9501 73.7314H46.8335L43.3881 77.5735L39.9575 73.7314H39.9501ZM56.9344 73.7314H69.3347L75.9903 81.1536L61.298 97.5382L48.4423 83.2017L56.9344 73.7314ZM79.8911 73.7314H82.4182L81.2722 75.2715L79.8838 73.7314H79.8911ZM92.9746 73.7314H105.375L113.867 83.2017L101.011 97.5382L86.319 80.8996L92.9746 73.7314ZM115.476 73.7314H122.367L118.914 77.5735L115.483 73.7314H115.476ZM132.695 73.7314H138.66L135.45 95.7523L124.196 83.2017L132.703 73.7314H132.695ZM81.0371 86.7899L95.9645 103.175L81.0445 119.559L66.3522 103.175L81.0445 86.7899H81.0371ZM43.3955 89.0919L56.0161 103.175L41.3238 119.559L29.3863 106.247L29.1586 104.969L43.3955 89.0919ZM118.914 89.0919L133.606 105.477L120.986 119.813L106.293 103.175L118.921 89.0919H118.914ZM61.298 109.065L75.9903 125.449L61.298 141.834L46.6057 125.449L61.298 109.065ZM101.011 109.065L115.931 125.449L101.239 141.834L86.3264 125.449L101.019 109.065H101.011ZM131.777 119.305L130.168 130.053L126.032 125.441L131.777 119.297V119.305ZM31.4506 120.067L36.277 125.441L32.8317 129.292L31.4506 120.067ZM41.3312 131.078L56.0235 147.462L41.3312 164.101L37.2026 159.497L34.2128 139.016L41.3385 131.078H41.3312ZM81.0518 131.078L95.9645 147.716L81.2722 164.101L66.3595 147.462L81.0518 131.078ZM120.993 131.078L128.802 139.786L125.812 158.464L120.993 163.847L106.301 147.462L120.993 131.078ZM61.3054 153.352L75.9977 169.737L61.3054 186.376L46.6131 169.991L61.3054 153.352ZM101.019 153.352L115.711 169.737L101.019 186.122L86.3264 169.737L101.019 153.352ZM41.5589 175.619L56.2512 192.004L52.1153 196.616H51.6525C48.7802 196.616 47.0906 195.551 45.232 193.29C43.0588 190.512 41.5569 187.163 40.8684 183.557V183.303L39.9501 177.159L41.5516 175.619H41.5589ZM81.2796 175.619L95.9719 192.004L91.836 196.616H70.4807L66.3448 192.004L81.2722 175.619H81.2796ZM120.993 175.619L123.057 177.929L122.139 183.303C122.124 183.385 122.154 183.467 122.139 183.557C121.441 187.572 119.817 191.111 118.01 193.29C116.159 195.502 114.271 196.616 111.347 196.616H110.429L106.301 192.004L120.993 175.619Z" fill="#56368A"/>
</svg>
