<svg width="23" height="23" viewBox="0 0 23 23" fill="none" xmlns="http://www.w3.org/2000/svg">
<path d="M3.83331 5.75V19.8056C3.82737 20.0514 3.86992 20.296 3.95854 20.5254C4.04717 20.7548 4.18012 20.9645 4.34981 21.1425C4.51949 21.3205 4.72259 21.4633 4.94749 21.5628C5.17239 21.6622 5.41468 21.7164 5.66053 21.7222H17.3075C17.556 21.7206 17.8018 21.6695 18.0304 21.5719C18.259 21.4743 18.4658 21.3321 18.6389 21.1537C18.812 20.9753 18.9478 20.7642 19.0384 20.5327C19.129 20.3012 19.1726 20.054 19.1666 19.8056V5.75H3.83331ZM9.58331 18.5278H8.30553V8.94444H9.58331V18.5278ZM14.6944 18.5278H13.4166V8.94444H14.6944V18.5278Z" fill="#10347D"/>
<path d="M19.6332 3.1945H14.6946V2.55561C14.6946 2.21672 14.5599 1.89171 14.3203 1.65208C14.0807 1.41245 13.7557 1.27783 13.4168 1.27783H9.45566C9.13938 1.30962 8.84631 1.45815 8.63366 1.69442C8.42102 1.93069 8.30407 2.23774 8.30566 2.55561V3.1945H3.19455C3.02511 3.1945 2.86261 3.26181 2.74279 3.38163C2.62298 3.50144 2.55566 3.66394 2.55566 3.83339C2.55566 4.00283 2.62298 4.16534 2.74279 4.28515C2.86261 4.40497 3.02511 4.47228 3.19455 4.47228H19.6332C19.8026 4.47228 19.9651 4.40497 20.0849 4.28515C20.2047 4.16534 20.2721 4.00283 20.2721 3.83339C20.2721 3.66394 20.2047 3.50144 20.0849 3.38163C19.9651 3.26181 19.8026 3.1945 19.6332 3.1945Z" fill="#10347D"/>
</svg>
